# xmcd
#
# Track frame offsets:
# 150
# 17386
# 34600
# 48787
# 65572
# 82964
# 98317
# 114914
# 132007
# 147260
# 166486
# 181927
# 190579
#
# Disc length: 2776 seconds
#
# Revision: 0
# Processed by: cddbd v1.5.2PL0 Copyright (c) Steve Scherf et al.
# Submitted via: Axialis_AX_CDPlayer 2.6
#
DISCID=910ad60d
DTITLE=Collin Raye - The Walls Came Down
DYEAR=1900
DGENRE=
TTITLE0=Anyone Else
TTITLE1=I Wish I Could
TTITLE2=Start Over Georgia
TTITLE3=I Can Still Feel You
TTITLE4=Someone You Used To Know
TTITLE5=Corner Of The Heart
TTITLE6=All My Roads
TTITLE7=The Walls Came Down
TTITLE8=April Fool
TTITLE9=Make Sure You've Got It All
TTITLE10=Survivors
TTITLE11=Dark Secrets
TTITLE12=The Eleventh Commandment
EXTD=www.collinraye.com
EXTT0=
EXTT1=
EXTT2=
EXTT3=
EXTT4=
EXTT5=
EXTT6=
EXTT7=
EXTT8=
EXTT9=
EXTT10=
EXTT11=
EXTT12=
PLAYORDER=
